<svg width="97" height="79" viewBox="0 0 97 79" fill="none" xmlns="http://www.w3.org/2000/svg">
<path d="M48.5 0H14.55C10.6911 0 6.99025 1.5606 4.2616 4.33848C1.53294 7.11636 0 10.884 0 14.8125V54.3125C0 58.241 1.53294 62.0086 4.2616 64.7865C6.99025 67.5644 10.6911 69.125 14.55 69.125L9.7 74.0625V79H14.55L24.25 68.9769L33.95 69.125V44.4375H9.7V9.875H53.35V19.75H63.05V14.8125C63.05 10.884 61.5171 7.11636 58.7884 4.33848C56.0597 1.5606 52.3589 0 48.5 0ZM14.55 49.375C15.8363 49.375 17.0699 49.8952 17.9795 50.8212C18.889 51.7471 19.4 53.003 19.4 54.3125C19.4 55.622 18.889 56.8779 17.9795 57.8038C17.0699 58.7298 15.8363 59.25 14.55 59.25C13.2637 59.25 12.0301 58.7298 11.1205 57.8038C10.211 56.8779 9.7 55.622 9.7 54.3125C9.7 53.003 10.211 51.7471 11.1205 50.8212C12.0301 49.8952 13.2637 49.375 14.55 49.375ZM90.0645 27.9462C89.3855 25.9712 87.5425 24.6875 85.36 24.6875H50.4885C48.2575 24.6875 46.463 25.9712 45.7355 27.9462L38.8 48.2394V75.445C38.8 77.3213 40.352 79 42.195 79H45.202C47.045 79 48.5 77.1237 48.5 75.2475V69.125H87.3V75.2475C87.3 77.1237 88.8035 79 90.6465 79H93.605C95.448 79 97 77.3213 97 75.445V68.6806V48.2394L90.0645 27.9462ZM50.4885 29.625H85.36L90.3555 44.4375H45.493L50.4885 29.625ZM48.5 59.25C47.2137 59.25 45.9801 58.7298 45.0705 57.8038C44.161 56.8779 43.65 55.622 43.65 54.3125C43.65 53.003 44.161 51.7471 45.0705 50.8212C45.9801 49.8952 47.2137 49.375 48.5 49.375C49.7863 49.375 51.0199 49.8952 51.9295 50.8212C52.839 51.7471 53.35 53.003 53.35 54.3125C53.35 55.622 52.839 56.8779 51.9295 57.8038C51.0199 58.7298 49.7863 59.25 48.5 59.25ZM87.3 59.25C86.0137 59.25 84.7801 58.7298 83.8705 57.8038C82.961 56.8779 82.45 55.622 82.45 54.3125C82.45 53.003 82.961 51.7471 83.8705 50.8212C84.7801 49.8952 86.0137 49.375 87.3 49.375C88.5863 49.375 89.8199 49.8952 90.7295 50.8212C91.639 51.7471 92.15 53.003 92.15 54.3125C92.15 55.622 91.639 56.8779 90.7295 57.8038C89.8199 58.7298 88.5863 59.25 87.3 59.25Z" fill="url(#paint0_linear_956_3)"/>
<defs>
<linearGradient id="paint0_linear_956_3" x1="0" y1="0" x2="98.5632" y2="77.0581" gradientUnits="userSpaceOnUse">
<stop stop-color="#FFA800"/>
<stop offset="1" stop-color="#FFD600"/>
</linearGradient>
</defs>
</svg>
