<svg width="24" height="24" viewBox="0 0 24 24" fill="none" xmlns="http://www.w3.org/2000/svg">
<path d="M10.6821 13.8079C11.1365 14.2402 11.1365 14.9497 10.6821 15.382C10.2498 15.8143 9.54034 15.8143 9.10804 15.382C6.94653 13.2205 6.94653 9.70661 9.10804 7.5451L13.032 3.62113C15.1935 1.45962 18.7074 1.45962 20.8689 3.62113C23.0304 5.78264 23.0304 9.29648 20.8689 11.458L19.2173 13.1096C19.2283 12.2007 19.0842 11.2917 18.7739 10.4271L19.2948 9.89505C20.6028 8.59815 20.6028 6.49206 19.2948 5.19515C17.9979 3.88716 15.8919 3.88716 14.5949 5.19515L10.6821 9.10804C9.37407 10.4049 9.37407 12.511 10.6821 13.8079ZM13.8079 9.10804C14.2402 8.67574 14.9497 8.67574 15.382 9.10804C17.5435 11.2695 17.5435 14.7834 15.382 16.9449L11.458 20.8689C9.29648 23.0304 5.78264 23.0304 3.62113 20.8689C1.45962 18.7074 1.45962 15.1935 3.62113 13.032L5.27275 11.3804C5.26166 12.2893 5.40576 13.1983 5.71613 14.074L5.19515 14.5949C3.88716 15.8919 3.88716 17.9979 5.19515 19.2948C6.49206 20.6028 8.59815 20.6028 9.89505 19.2948L13.8079 15.382C15.1159 14.0851 15.1159 11.979 13.8079 10.6821C13.3535 10.2498 13.3535 9.54034 13.8079 9.10804Z" fill="url(#paint0_linear_809_15)"/>
<defs>
<linearGradient id="paint0_linear_809_15" x1="12.245" y1="2" x2="12.245" y2="22.49" gradientUnits="userSpaceOnUse">
<stop stop-color="#FFA800"/>
<stop offset="1" stop-color="#FFD600"/>
</linearGradient>
</defs>
</svg>
