<svg width="40" height="40" viewBox="0 0 40 40" fill="none" xmlns="http://www.w3.org/2000/svg">
<path d="M8.95 12.2452C8.2737 12.2452 7.6251 12.0016 7.14688 11.5678C6.66866 11.134 6.4 10.5457 6.4 9.93222C6.4 9.31877 6.66866 8.73044 7.14688 8.29666C7.6251 7.86289 8.2737 7.61919 8.95 7.61919C9.6263 7.61919 10.2749 7.86289 10.7531 8.29666C11.2313 8.73044 11.5 9.31877 11.5 9.93222C11.5 10.5457 11.2313 11.134 10.7531 11.5678C10.2749 12.0016 9.6263 12.2452 8.95 12.2452ZM35.997 19.3077L20.697 5.42953C20.085 4.8744 19.235 4.53516 18.3 4.53516H6.4C4.513 4.53516 3 5.90755 3 7.61919V18.4133C3 19.2614 3.374 20.0324 4.003 20.5876L19.286 34.4657C19.915 35.0209 20.765 35.3755 21.7 35.3755C22.635 35.3755 23.485 35.0209 24.097 34.4657L35.997 23.6716C36.626 23.1165 37 22.3455 37 21.4974C37 20.6338 36.609 19.8628 35.997 19.3077Z" fill="url(#paint0_linear_695_4)"/>
<defs>
<linearGradient id="paint0_linear_695_4" x1="20" y1="4.53516" x2="20" y2="35.3755" gradientUnits="userSpaceOnUse">
<stop stop-color="#FFA800"/>
<stop offset="1" stop-color="#FFD600"/>
</linearGradient>
</defs>
</svg>
