<svg width="40" height="40" viewBox="0 0 40 40" fill="none" xmlns="http://www.w3.org/2000/svg">
<path d="M27.25 24.1098C27.25 26.0555 26.6688 30.3006 22.9875 35.2532L21.4375 26.763L23.1812 23.4023C22.0187 23.4023 20.8563 23.2254 19.5 23.2254C18.1438 23.2254 16.9813 23.4023 15.8188 23.4023L17.5625 26.763L16.0125 35.2532C12.3312 30.4774 11.75 26.0555 11.75 24.1098C7.1 25.348 4 27.6474 4 30.3006V37.3757H35V30.3006C35 27.6474 31.9 25.348 27.25 24.1098ZM7.875 6.42196C7.875 3.94566 13.1062 2 19.5 2C25.8937 2 31.125 3.94566 31.125 6.42196C31.125 7.12948 30.7375 7.66011 30.1562 8.19075C28.4125 6.59884 24.3438 5.53757 19.5 5.53757C14.6562 5.53757 10.5875 6.59884 8.84375 8.19075C8.2625 7.66011 7.875 7.12948 7.875 6.42196ZM27.0562 11.5514C27.25 11.9052 27.25 12.259 27.25 12.6127C27.25 16.504 23.7625 19.6879 19.5 19.6879C15.2375 19.6879 11.75 16.504 11.75 12.6127C11.75 12.259 11.75 11.9052 11.9438 11.5514C13.8813 12.259 16.5938 12.6127 19.5 12.6127C22.4062 12.6127 25.1187 12.259 27.0562 11.5514ZM28.4125 9.25202C26.2812 10.1364 23.1812 10.8439 19.5 10.8439C15.8188 10.8439 12.7188 10.1364 10.5875 9.25202C11.9438 8.19075 15.2375 7.30636 19.5 7.30636C23.7625 7.30636 27.0563 8.19075 28.4125 9.25202Z" fill="url(#paint0_linear_695_10)"/>
<defs>
<linearGradient id="paint0_linear_695_10" x1="19.5" y1="2" x2="19.5" y2="37.3757" gradientUnits="userSpaceOnUse">
<stop stop-color="#FFA800"/>
<stop offset="1" stop-color="#FFD600"/>
</linearGradient>
</defs>
</svg>
