<svg width="40" height="40" viewBox="0 0 40 40" fill="none" xmlns="http://www.w3.org/2000/svg">
<path d="M5.22222 15.7849L8.38889 7.11101H31.6111L34.7778 15.7849M31.6111 25.4225C30.7713 25.4225 29.9658 25.1179 29.3719 24.5756C28.7781 24.0334 28.4444 23.298 28.4444 22.5312C28.4444 21.7644 28.7781 21.029 29.3719 20.4867C29.9658 19.9445 30.7713 19.6399 31.6111 19.6399C32.451 19.6399 33.2564 19.9445 33.8503 20.4867C34.4441 21.029 34.7778 21.7644 34.7778 22.5312C34.7778 23.298 34.4441 24.0334 33.8503 24.5756C33.2564 25.1179 32.451 25.4225 31.6111 25.4225ZM8.38889 25.4225C7.54904 25.4225 6.74358 25.1179 6.14972 24.5756C5.55585 24.0334 5.22222 23.298 5.22222 22.5312C5.22222 21.7644 5.55585 21.029 6.14972 20.4867C6.74358 19.9445 7.54904 19.6399 8.38889 19.6399C9.22874 19.6399 10.0342 19.9445 10.6281 20.4867C11.2219 21.029 11.5556 21.7644 11.5556 22.5312C11.5556 23.298 11.2219 24.0334 10.6281 24.5756C10.0342 25.1179 9.22874 25.4225 8.38889 25.4225ZM34.6089 6.14725C34.1867 5.02929 33.0044 4.21973 31.6111 4.21973H8.38889C6.99556 4.21973 5.81333 5.02929 5.39111 6.14725L1 17.7124V33.1326C1 33.6438 1.22242 34.134 1.61833 34.4955C2.01424 34.857 2.55121 35.0601 3.11111 35.0601H5.22222C5.78212 35.0601 6.31909 34.857 6.715 34.4955C7.11091 34.134 7.33333 33.6438 7.33333 33.1326V31.205H32.6667V33.1326C32.6667 33.6438 32.8891 34.134 33.285 34.4955C33.6809 34.857 34.2179 35.0601 34.7778 35.0601H36.8889C37.4488 35.0601 37.9858 34.857 38.3817 34.4955C38.7776 34.134 39 33.6438 39 33.1326V17.7124L34.6089 6.14725Z" fill="url(#paint0_linear_695_11)"/>
<defs>
<linearGradient id="paint0_linear_695_11" x1="20" y1="4.21973" x2="20" y2="35.0601" gradientUnits="userSpaceOnUse">
<stop stop-color="#FFA800"/>
<stop offset="1" stop-color="#FFD600"/>
</linearGradient>
</defs>
</svg>
